<?xml version="1.0" standalone="no"?>
<!DOCTYPE svg PUBLIC "-//W3C//DTD SVG 20010904//EN"
 "http://www.w3.org/TR/2001/REC-SVG-20010904/DTD/svg10.dtd">
<svg version="1.0" xmlns="http://www.w3.org/2000/svg"
 width="408.000000pt" height="612.000000pt" viewBox="0 0 408.000000 612.000000"
 preserveAspectRatio="xMidYMid meet">

<g transform="translate(0.000000,612.000000) scale(0.100000,-0.100000)"
fill="#000000" stroke="none">
<path d="M2022 5443 c-68 -104 -117 -212 -148 -328 l-25 -96 53 -69 c29 -39
55 -70 59 -70 3 0 17 26 31 58 32 73 88 147 150 197 27 22 53 47 57 55 21 36
-80 330 -112 330 -8 0 -37 -35 -65 -77z"/>
<path d="M2362 5223 c-160 -101 -267 -206 -322 -317 -40 -80 -38 -105 15 -190
101 -162 169 -368 182 -548 3 -48 9 -88 13 -88 13 0 202 296 241 376 63 133
83 220 83 359 0 125 -9 183 -50 325 -34 114 -44 140 -59 140 -6 0 -53 -26
-103 -57z"/>
<path d="M1240 5192 c0 -5 32 -57 70 -118 104 -162 129 -240 131 -408 1 -76 2
-85 10 -56 46 167 67 236 96 307 18 45 30 89 27 97 -6 16 -56 48 -211 135 -88
49 -123 61 -123 43z"/>
<path d="M1676 5067 c-26 -39 -105 -227 -135 -322 -38 -118 -78 -320 -87 -432
-7 -99 11 -206 47 -280 35 -72 120 -156 201 -198 40 -21 116 -64 168 -95 139
-83 139 -83 156 -69 23 19 131 229 148 288 20 69 20 133 0 252 -48 283 -100
402 -301 686 -140 197 -165 219 -197 170z"/>
<path d="M780 4564 c0 -5 37 -31 83 -58 174 -104 280 -199 427 -382 90 -111
212 -234 232 -234 4 0 -12 29 -36 64 -58 85 -73 135 -96 320 -10 86 -22 161
-26 167 -12 20 -150 78 -236 100 -89 22 -348 39 -348 23z"/>
<path d="M2920 4475 c-253 -43 -457 -180 -611 -408 -32 -48 -100 -170 -150
-269 -81 -163 -89 -184 -78 -205 13 -25 55 -56 68 -51 5 2 132 114 282 249
426 383 584 513 748 614 72 45 76 66 16 77 -61 11 -191 7 -275 -7z"/>
<path d="M1003 3913 c-18 -3 -33 -10 -33 -17 0 -7 26 -30 58 -52 215 -145 274
-199 364 -331 134 -197 239 -259 517 -307 80 -14 87 -13 123 5 41 21 92 24
134 9 l27 -11 -7 43 c-30 186 -153 356 -319 440 -86 43 -312 124 -453 163
-157 43 -331 67 -411 58z"/>
<path d="M2500 3751 c-49 -15 -91 -42 -177 -115 -131 -109 -166 -144 -160
-158 39 -88 58 -145 63 -185 10 -82 9 -82 102 9 115 113 113 112 407 105 283
-8 400 -29 561 -103 30 -14 60 -24 65 -22 16 5 -64 120 -112 162 -95 81 -392
247 -521 290 -78 26 -174 33 -228 17z"/>
<path d="M979 3632 c-55 -28 -256 -207 -258 -229 -1 -8 27 -4 87 13 106 31
286 43 359 25 26 -7 99 -33 162 -57 62 -25 115 -43 117 -41 6 5 -115 157 -175
221 -91 96 -193 120 -292 68z"/>
<path d="M2425 3305 c-41 -18 -121 -90 -128 -114 -3 -11 2 -26 12 -35 17 -16
568 -162 577 -153 11 11 -17 45 -129 155 -156 151 -239 188 -332 147z"/>
<path d="M1290 3285 c-73 -33 -111 -87 -149 -209 -22 -71 -27 -116 -13 -116 5
0 51 30 103 68 141 100 266 152 406 169 29 3 50 9 47 14 -2 5 -55 24 -117 44
-131 43 -226 53 -277 30z"/>
<path d="M1623 3156 c-60 -15 -108 -45 -173 -107 -41 -39 -43 -43 -24 -47 20
-3 303 43 420 68 59 13 90 32 80 48 -12 20 -136 52 -195 51 -31 0 -80 -6 -108
-13z"/>
<path d="M2053 3149 c-37 -23 -50 -53 -33 -74 21 -26 379 -133 400 -120 6 4
10 18 10 32 0 65 -188 183 -291 183 -37 0 -64 -7 -86 -21z"/>
<path d="M1842 3008 c-42 -21 -38 -50 23 -170 69 -136 82 -153 103 -135 8 6
39 61 69 122 60 123 65 161 23 182 -31 16 -186 16 -218 1z"/>
<path d="M2481 2971 c-28 -28 -27 -43 10 -148 46 -130 64 -157 137 -205 35
-23 91 -63 124 -90 88 -70 98 -65 98 50 -1 173 -75 296 -222 370 -88 44 -121
49 -147 23z"/>
<path d="M1549 2911 c-65 -67 -119 -165 -119 -218 0 -48 111 -173 154 -173 34
0 201 86 225 116 21 26 22 36 17 93 -10 92 -45 190 -78 214 -17 12 -49 22 -83
25 l-56 5 -60 -62z"/>
<path d="M1384 2924 c-112 -67 -147 -117 -189 -277 -29 -107 -29 -113 -12
-120 17 -6 147 39 165 57 8 8 20 45 28 82 8 38 37 115 64 172 28 57 50 108 50
113 0 20 -49 7 -106 -27z"/>
<path d="M2150 2922 c-51 -52 -109 -282 -80 -317 22 -27 176 -105 205 -105 22
0 41 13 78 53 63 68 117 146 117 172 0 74 -179 224 -268 225 -13 0 -36 -13
-52 -28z"/>
<path d="M2463 2595 c-39 -17 -106 -113 -140 -203 -21 -56 -24 -77 -19 -132 3
-39 13 -74 24 -89 10 -13 56 -41 102 -61 47 -20 110 -49 141 -63 76 -37 100
-35 139 10 52 59 112 191 107 234 -11 84 -66 156 -185 242 -95 68 -126 80
-169 62z"/>
<path d="M1870 2535 c-51 -27 -205 -235 -216 -291 -11 -59 11 -97 99 -173 45
-38 95 -83 111 -100 48 -50 67 -43 170 62 50 50 110 108 134 128 36 31 42 41
42 76 0 92 -109 240 -212 288 -60 28 -91 30 -128 10z"/>
<path d="M1385 2526 c-37 -16 -136 -119 -160 -166 -25 -48 -16 -135 20 -196
30 -52 92 -124 106 -124 10 0 177 97 217 125 20 15 22 24 22 114 0 91 -2 100
-29 142 -39 59 -90 106 -121 113 -14 3 -38 0 -55 -8z"/>
<path d="M2881 2491 c-7 -12 -8 -69 -4 -152 5 -111 10 -147 34 -211 28 -79
103 -198 124 -198 6 0 19 16 29 36 36 76 18 322 -29 414 -22 43 -74 99 -106
116 -35 18 -36 18 -48 -5z"/>
<path d="M1173 2470 c-51 -23 -107 -88 -150 -175 -31 -63 -34 -76 -29 -130 8
-81 23 -132 42 -139 21 -8 71 43 79 80 19 98 32 139 71 226 69 154 67 174 -13
138z"/>
<path d="M1512 2070 c-48 -34 -113 -117 -141 -180 -42 -91 -22 -161 70 -247
89 -84 93 -87 126 -69 16 8 36 24 45 35 9 11 36 32 60 47 100 64 117 77 128
104 15 36 1 91 -46 180 -80 152 -156 192 -242 130z"/>
<path d="M2183 2061 c-65 -47 -173 -211 -173 -264 0 -14 10 -37 23 -50 23 -26
332 -187 358 -187 19 0 187 194 195 225 9 36 -32 103 -115 188 -89 92 -131
117 -199 117 -38 0 -58 -6 -89 -29z"/>
<path d="M1125 2039 c-26 -24 -60 -71 -81 -113 -39 -79 -39 -103 -2 -183 22
-48 110 -133 137 -133 25 0 56 37 88 105 37 80 39 191 5 278 -41 101 -75 112
-147 46z"/>
<path d="M2791 2026 c-45 -34 -58 -54 -87 -138 -38 -113 -36 -122 53 -222 43
-48 88 -89 100 -92 26 -7 79 28 111 73 22 31 52 124 52 160 0 33 -86 178 -127
213 -41 36 -59 37 -102 6z"/>
<path d="M1857 1689 c-85 -45 -225 -226 -243 -315 -5 -28 -1 -35 43 -70 26
-21 91 -80 143 -130 101 -98 132 -114 180 -94 42 18 222 208 249 264 27 55 23
79 -22 145 -49 71 -97 120 -157 160 -101 67 -130 73 -193 40z"/>
<path d="M990 1648 c-36 -103 -18 -228 47 -327 44 -68 113 -142 124 -135 25
15 -1 286 -35 359 -27 57 -91 135 -111 135 -7 0 -18 -15 -25 -32z"/>
<path d="M2627 1660 c-58 -18 -95 -58 -148 -163 -45 -90 -50 -108 -46 -150 3
-32 12 -56 28 -73 46 -50 202 -164 224 -164 16 0 39 24 87 88 36 48 71 98 78
111 30 58 -30 207 -125 307 -54 57 -54 57 -98 44z"/>
<path d="M1269 1630 c-9 -5 -27 -33 -40 -62 -21 -46 -24 -68 -24 -168 0 -96 4
-123 22 -162 24 -52 98 -138 119 -138 8 0 25 24 38 53 13 28 46 75 73 103 28
28 53 64 55 79 11 56 -31 150 -105 235 -57 66 -98 84 -138 60z"/>
<path d="M2996 1601 c-10 -11 -35 -73 -56 -138 -21 -65 -47 -141 -58 -169
l-20 -51 31 -49 c17 -27 36 -52 42 -57 14 -10 70 57 101 121 35 74 40 142 19
251 -19 101 -33 121 -59 92z"/>
<path d="M2265 1221 c-54 -25 -153 -111 -188 -164 -25 -37 -28 -49 -25 -102 5
-76 41 -154 103 -218 34 -36 52 -47 75 -47 47 0 235 122 306 199 72 77 -35
301 -163 339 -52 16 -60 15 -108 -7z"/>
<path d="M1533 1220 c-38 -16 -113 -187 -113 -257 0 -48 19 -80 87 -144 65
-63 118 -93 187 -109 72 -16 78 -9 122 130 39 124 30 173 -51 259 -89 95 -180
143 -232 121z"/>
<path d="M1202 1076 c4 -75 11 -106 31 -148 32 -66 152 -187 168 -171 13 13
-11 113 -46 191 -33 72 -132 222 -146 222 -8 0 -10 -27 -7 -94z"/>
<path d="M2793 1118 c-71 -75 -203 -306 -203 -355 0 -34 18 -29 101 28 122 83
141 108 173 220 14 47 15 62 4 95 -17 50 -36 53 -75 12z"/>
<path d="M1925 871 c-17 -20 -75 -188 -75 -220 0 -34 27 -44 133 -49 134 -6
142 1 99 92 -40 85 -97 172 -120 185 -15 8 -23 6 -37 -8z"/>
<path d="M1444 758 c19 -96 67 -140 159 -145 64 -4 95 6 82 27 -11 18 -216
150 -233 150 -11 0 -13 -8 -8 -32z"/>
<path d="M2485 762 c-129 -71 -225 -162 -172 -162 23 0 181 52 204 68 35 22
55 123 26 122 -4 0 -30 -13 -58 -28z"/>
</g>
</svg>
